<svg width="396" height="50" viewBox="0 0 396 50" fill="none" xmlns="http://www.w3.org/2000/svg">
<path d="M231 6C231 2.68629 233.686 0 237 0H379.398C381.64 0 383.695 1.24952 384.726 3.23982L394.57 22.2398C395.467 23.9707 395.467 26.0293 394.57 27.7602L384.726 46.7602C383.695 48.7505 381.64 50 379.398 50H237C233.686 50 231 47.3137 231 44V6Z" fill="#737373"/>
<path d="M105.602 6C105.602 2.68629 108.288 0 111.602 0L247.4 0C249.642 0 251.696 1.24952 252.727 3.23982L262.571 22.2398C263.468 23.9707 263.468 26.0293 262.571 27.7602L252.727 46.7602C251.696 48.7505 249.642 50 247.4 50H111.602C108.288 50 105.602 47.3137 105.602 44V6Z" fill="#262626"/>
<path d="M0 6C0 2.68629 2.68629 0 6 0H115.398C117.64 0 119.695 1.24952 120.726 3.23983L130.57 22.2398C131.467 23.9707 131.467 26.0293 130.57 27.7602L120.726 46.7602C119.695 48.7505 117.64 50 115.398 50H6C2.68629 50 0 47.3137 0 44V6Z" fill="#CA0100"/>
<path d="M296.022 19.0469V29H293.971V20.6533H289.972V29H287.921V19.0469H296.022ZM297.376 25.377V25.2334C297.376 24.6911 297.453 24.1921 297.608 23.7363C297.763 23.276 297.989 22.8773 298.285 22.54C298.581 22.2028 298.946 21.9408 299.379 21.7539C299.811 21.5625 300.308 21.4668 300.869 21.4668C301.429 21.4668 301.928 21.5625 302.366 21.7539C302.803 21.9408 303.17 22.2028 303.466 22.54C303.767 22.8773 303.995 23.276 304.15 23.7363C304.305 24.1921 304.382 24.6911 304.382 25.2334V25.377C304.382 25.9147 304.305 26.4137 304.15 26.874C303.995 27.3298 303.767 27.7285 303.466 28.0703C303.17 28.4076 302.806 28.6696 302.373 28.8564C301.94 29.0433 301.443 29.1367 300.882 29.1367C300.322 29.1367 299.823 29.0433 299.385 28.8564C298.952 28.6696 298.586 28.4076 298.285 28.0703C297.989 27.7285 297.763 27.3298 297.608 26.874C297.453 26.4137 297.376 25.9147 297.376 25.377ZM299.344 25.2334V25.377C299.344 25.6868 299.372 25.9762 299.426 26.2451C299.481 26.514 299.568 26.751 299.686 26.9561C299.809 27.1566 299.969 27.3138 300.165 27.4277C300.361 27.5417 300.6 27.5986 300.882 27.5986C301.156 27.5986 301.391 27.5417 301.587 27.4277C301.782 27.3138 301.94 27.1566 302.058 26.9561C302.177 26.751 302.263 26.514 302.318 26.2451C302.377 25.9762 302.407 25.6868 302.407 25.377V25.2334C302.407 24.9326 302.377 24.6501 302.318 24.3857C302.263 24.1169 302.174 23.8799 302.051 23.6748C301.933 23.4652 301.776 23.3011 301.58 23.1826C301.384 23.0641 301.147 23.0049 300.869 23.0049C300.591 23.0049 300.354 23.0641 300.158 23.1826C299.966 23.3011 299.809 23.4652 299.686 23.6748C299.568 23.8799 299.481 24.1169 299.426 24.3857C299.372 24.6501 299.344 24.9326 299.344 25.2334ZM306.433 21.6035H308.402L308.34 24.0781C308.322 24.8711 308.231 25.5524 308.067 26.1221C307.903 26.6917 307.684 27.1702 307.411 27.5576C307.137 27.945 306.825 28.2549 306.474 28.4873C306.128 28.7152 305.763 28.8861 305.38 29H305.011L304.991 27.4824L305.196 27.4619C305.428 27.2204 305.62 26.9857 305.77 26.7578C305.921 26.5254 306.037 26.2816 306.119 26.0264C306.201 25.7712 306.26 25.4863 306.296 25.1719C306.338 24.8574 306.363 24.4928 306.372 24.0781L306.433 21.6035ZM306.966 21.6035H311.868V29H309.906V23.1826H306.966V21.6035ZM304.56 27.4619H312.927V31.2217H310.959V29H306.577V31.2217H304.56V27.4619ZM315.819 23.0254V31.8438H313.85V21.6035H315.675L315.819 23.0254ZM320.502 25.2197V25.3633C320.502 25.901 320.438 26.4001 320.31 26.8604C320.187 27.3206 320.005 27.7217 319.763 28.0635C319.522 28.4007 319.221 28.665 318.861 28.8564C318.505 29.0433 318.095 29.1367 317.63 29.1367C317.179 29.1367 316.787 29.0456 316.455 28.8633C316.122 28.681 315.842 28.4258 315.614 28.0977C315.391 27.765 315.211 27.3799 315.074 26.9424C314.937 26.5049 314.832 26.0355 314.759 25.5342V25.1582C314.832 24.6204 314.937 24.1283 315.074 23.6816C315.211 23.2305 315.391 22.8408 315.614 22.5127C315.842 22.18 316.12 21.9225 316.448 21.7402C316.781 21.5579 317.17 21.4668 317.617 21.4668C318.086 21.4668 318.499 21.5557 318.854 21.7334C319.214 21.9111 319.515 22.1663 319.756 22.499C320.003 22.8317 320.187 23.2282 320.31 23.6885C320.438 24.1488 320.502 24.6592 320.502 25.2197ZM318.526 25.3633V25.2197C318.526 24.9053 318.499 24.6159 318.444 24.3516C318.394 24.0827 318.312 23.848 318.198 23.6475C318.088 23.4469 317.943 23.292 317.76 23.1826C317.583 23.0687 317.366 23.0117 317.111 23.0117C316.842 23.0117 316.612 23.055 316.421 23.1416C316.234 23.2282 316.081 23.3535 315.963 23.5176C315.844 23.6816 315.755 23.8776 315.696 24.1055C315.637 24.3333 315.6 24.5908 315.587 24.8779V25.8281C315.609 26.1654 315.673 26.4684 315.778 26.7373C315.883 27.0016 316.045 27.2113 316.263 27.3662C316.482 27.5212 316.769 27.5986 317.125 27.5986C317.384 27.5986 317.603 27.5417 317.781 27.4277C317.959 27.3092 318.102 27.1475 318.212 26.9424C318.325 26.7373 318.405 26.5003 318.451 26.2314C318.501 25.9626 318.526 25.6732 318.526 25.3633ZM321.411 25.377V25.2334C321.411 24.6911 321.488 24.1921 321.643 23.7363C321.798 23.276 322.024 22.8773 322.32 22.54C322.616 22.2028 322.981 21.9408 323.414 21.7539C323.847 21.5625 324.343 21.4668 324.904 21.4668C325.464 21.4668 325.963 21.5625 326.401 21.7539C326.838 21.9408 327.205 22.2028 327.502 22.54C327.802 22.8773 328.03 23.276 328.185 23.7363C328.34 24.1921 328.418 24.6911 328.418 25.2334V25.377C328.418 25.9147 328.34 26.4137 328.185 26.874C328.03 27.3298 327.802 27.7285 327.502 28.0703C327.205 28.4076 326.841 28.6696 326.408 28.8564C325.975 29.0433 325.478 29.1367 324.918 29.1367C324.357 29.1367 323.858 29.0433 323.421 28.8564C322.988 28.6696 322.621 28.4076 322.32 28.0703C322.024 27.7285 321.798 27.3298 321.643 26.874C321.488 26.4137 321.411 25.9147 321.411 25.377ZM323.379 25.2334V25.377C323.379 25.6868 323.407 25.9762 323.462 26.2451C323.516 26.514 323.603 26.751 323.721 26.9561C323.844 27.1566 324.004 27.3138 324.2 27.4277C324.396 27.5417 324.635 27.5986 324.918 27.5986C325.191 27.5986 325.426 27.5417 325.622 27.4277C325.818 27.3138 325.975 27.1566 326.093 26.9561C326.212 26.751 326.298 26.514 326.353 26.2451C326.412 25.9762 326.442 25.6868 326.442 25.377V25.2334C326.442 24.9326 326.412 24.6501 326.353 24.3857C326.298 24.1169 326.21 23.8799 326.087 23.6748C325.968 23.4652 325.811 23.3011 325.615 23.1826C325.419 23.0641 325.182 23.0049 324.904 23.0049C324.626 23.0049 324.389 23.0641 324.193 23.1826C324.002 23.3011 323.844 23.4652 323.721 23.6748C323.603 23.8799 323.516 24.1169 323.462 24.3857C323.407 24.6501 323.379 24.9326 323.379 25.2334ZM334.16 18.3496H335.753C335.753 18.7188 335.707 19.0355 335.616 19.2998C335.525 19.5596 335.379 19.7829 335.178 19.9697C334.978 20.152 334.709 20.307 334.372 20.4346C334.034 20.5622 333.617 20.6715 333.121 20.7627C332.738 20.8402 332.405 20.9678 332.123 21.1455C331.845 21.3232 331.615 21.5671 331.432 21.877C331.254 22.1823 331.127 22.5697 331.049 23.0391C330.972 23.5039 330.945 24.0645 330.967 24.7207V25.0488L329.436 25.2607V24.9326C329.441 24.0394 329.52 23.2624 329.675 22.6016C329.835 21.9408 330.06 21.3848 330.352 20.9336C330.644 20.4779 330.995 20.1156 331.405 19.8467C331.815 19.5732 332.271 19.3818 332.772 19.2725C333.109 19.1995 333.378 19.1289 333.579 19.0605C333.784 18.9876 333.932 18.8965 334.023 18.7871C334.114 18.6777 334.16 18.5319 334.16 18.3496ZM333.298 22.0205C333.8 22.0205 334.244 22.1071 334.631 22.2803C335.019 22.4489 335.345 22.6882 335.609 22.998C335.873 23.3079 336.074 23.6725 336.211 24.0918C336.347 24.5111 336.416 24.9691 336.416 25.4658V25.6094C336.416 26.1152 336.338 26.5846 336.183 27.0176C336.033 27.446 335.81 27.8197 335.513 28.1387C335.217 28.4577 334.852 28.7061 334.42 28.8838C333.987 29.057 333.492 29.1436 332.936 29.1436C332.376 29.1436 331.877 29.0501 331.439 28.8633C331.006 28.6719 330.639 28.4053 330.338 28.0635C330.042 27.7171 329.817 27.3138 329.662 26.8535C329.511 26.3887 329.436 25.8828 329.436 25.3359V25.1855C329.436 25.1081 329.47 25.0329 329.539 24.96C329.612 24.8825 329.696 24.7959 329.792 24.7002C329.892 24.6045 329.981 24.4837 330.058 24.3379C330.332 23.832 330.63 23.4082 330.954 23.0664C331.277 22.7201 331.63 22.4603 332.013 22.2871C332.401 22.1094 332.829 22.0205 333.298 22.0205ZM332.922 23.5586C332.553 23.5586 332.257 23.6475 332.034 23.8252C331.81 23.9984 331.649 24.2308 331.548 24.5225C331.453 24.8096 331.405 25.124 331.405 25.4658V25.6094C331.405 25.8874 331.432 26.1471 331.487 26.3887C331.542 26.6257 331.628 26.8376 331.747 27.0244C331.865 27.2067 332.022 27.3503 332.218 27.4551C332.414 27.5553 332.654 27.6055 332.936 27.6055C333.21 27.6055 333.442 27.5553 333.633 27.4551C333.829 27.3503 333.987 27.2067 334.105 27.0244C334.224 26.8376 334.31 26.6257 334.365 26.3887C334.42 26.1471 334.447 25.8874 334.447 25.6094V25.4658C334.447 25.2061 334.42 24.9622 334.365 24.7344C334.31 24.502 334.224 24.2992 334.105 24.126C333.987 23.9482 333.829 23.8092 333.633 23.709C333.437 23.6087 333.2 23.5586 332.922 23.5586ZM342.554 24.5908V26.1221H338.795V24.5908H342.554ZM339.451 21.6035V29H337.482V21.6035H339.451ZM343.887 21.6035V29H341.912V21.6035H343.887ZM348.823 29.1367C348.249 29.1367 347.734 29.0456 347.278 28.8633C346.822 28.6764 346.435 28.4189 346.116 28.0908C345.801 27.7627 345.56 27.3822 345.391 26.9492C345.223 26.5117 345.138 26.0469 345.138 25.5547V25.2812C345.138 24.7207 345.218 24.208 345.378 23.7432C345.537 23.2783 345.765 22.875 346.061 22.5332C346.362 22.1914 346.726 21.9294 347.155 21.7471C347.583 21.5602 348.066 21.4668 348.604 21.4668C349.128 21.4668 349.593 21.5534 349.999 21.7266C350.404 21.8997 350.744 22.1458 351.017 22.4648C351.295 22.7839 351.505 23.1667 351.646 23.6133C351.787 24.0553 351.858 24.5475 351.858 25.0898V25.9102H345.979V24.5977H349.923V24.4473C349.923 24.1738 349.873 23.93 349.773 23.7158C349.677 23.4971 349.532 23.3239 349.336 23.1963C349.14 23.0687 348.889 23.0049 348.584 23.0049C348.324 23.0049 348.101 23.0618 347.914 23.1758C347.727 23.2897 347.574 23.4492 347.456 23.6543C347.342 23.8594 347.255 24.1009 347.196 24.3789C347.141 24.6523 347.114 24.9531 347.114 25.2812V25.5547C347.114 25.8509 347.155 26.1243 347.237 26.375C347.324 26.6257 347.444 26.8421 347.599 27.0244C347.759 27.2067 347.95 27.348 348.173 27.4482C348.401 27.5485 348.659 27.5986 348.946 27.5986C349.301 27.5986 349.632 27.5303 349.937 27.3936C350.247 27.2523 350.514 27.0404 350.737 26.7578L351.694 27.7969C351.539 28.0202 351.327 28.2344 351.058 28.4395C350.794 28.6445 350.475 28.8132 350.101 28.9453C349.727 29.0729 349.301 29.1367 348.823 29.1367ZM356.383 29.1367C355.809 29.1367 355.294 29.0456 354.838 28.8633C354.383 28.6764 353.995 28.4189 353.676 28.0908C353.362 27.7627 353.12 27.3822 352.952 26.9492C352.783 26.5117 352.699 26.0469 352.699 25.5547V25.2812C352.699 24.7207 352.779 24.208 352.938 23.7432C353.098 23.2783 353.325 22.875 353.622 22.5332C353.922 22.1914 354.287 21.9294 354.715 21.7471C355.144 21.5602 355.627 21.4668 356.165 21.4668C356.689 21.4668 357.154 21.5534 357.559 21.7266C357.965 21.8997 358.304 22.1458 358.578 22.4648C358.856 22.7839 359.065 23.1667 359.207 23.6133C359.348 24.0553 359.419 24.5475 359.419 25.0898V25.9102H353.54V24.5977H357.484V24.4473C357.484 24.1738 357.434 23.93 357.334 23.7158C357.238 23.4971 357.092 23.3239 356.896 23.1963C356.7 23.0687 356.449 23.0049 356.144 23.0049C355.884 23.0049 355.661 23.0618 355.474 23.1758C355.287 23.2897 355.135 23.4492 355.016 23.6543C354.902 23.8594 354.816 24.1009 354.756 24.3789C354.702 24.6523 354.674 24.9531 354.674 25.2812V25.5547C354.674 25.8509 354.715 26.1243 354.797 26.375C354.884 26.6257 355.005 26.8421 355.16 27.0244C355.319 27.2067 355.511 27.348 355.734 27.4482C355.962 27.5485 356.219 27.5986 356.506 27.5986C356.862 27.5986 357.192 27.5303 357.498 27.3936C357.808 27.2523 358.074 27.0404 358.297 26.7578L359.254 27.7969C359.1 28.0202 358.888 28.2344 358.619 28.4395C358.354 28.6445 358.035 28.8132 357.662 28.9453C357.288 29.0729 356.862 29.1367 356.383 29.1367Z" fill="white"/>
<path d="M21.9355 25.2559H19.3994V23.6562H21.9355C22.3275 23.6562 22.6465 23.5924 22.8926 23.4648C23.1387 23.3327 23.3187 23.1504 23.4326 22.918C23.5465 22.6855 23.6035 22.4235 23.6035 22.1318C23.6035 21.8356 23.5465 21.5599 23.4326 21.3047C23.3187 21.0495 23.1387 20.8444 22.8926 20.6895C22.6465 20.5345 22.3275 20.457 21.9355 20.457H20.1104V28.8037H18.0596V18.8506H21.9355C22.7148 18.8506 23.3825 18.9919 23.9385 19.2744C24.499 19.5524 24.9274 19.9375 25.2236 20.4297C25.5199 20.9219 25.668 21.4847 25.668 22.1182C25.668 22.7607 25.5199 23.3167 25.2236 23.7861C24.9274 24.2555 24.499 24.6178 23.9385 24.873C23.3825 25.1283 22.7148 25.2559 21.9355 25.2559ZM30.2686 28.9404C29.6943 28.9404 29.1794 28.8493 28.7236 28.667C28.2679 28.4801 27.8805 28.2227 27.5615 27.8945C27.2471 27.5664 27.0055 27.1859 26.8369 26.7529C26.6683 26.3154 26.584 25.8506 26.584 25.3584V25.085C26.584 24.5244 26.6637 24.0117 26.8232 23.5469C26.9827 23.082 27.2106 22.6787 27.5068 22.3369C27.8076 21.9951 28.1722 21.7331 28.6006 21.5508C29.029 21.3639 29.512 21.2705 30.0498 21.2705C30.5739 21.2705 31.0387 21.3571 31.4443 21.5303C31.8499 21.7035 32.1895 21.9495 32.4629 22.2686C32.7409 22.5876 32.9505 22.9704 33.0918 23.417C33.2331 23.859 33.3037 24.3512 33.3037 24.8936V25.7139H27.4248V24.4014H31.3691V24.251C31.3691 23.9775 31.319 23.7337 31.2188 23.5195C31.123 23.3008 30.9772 23.1276 30.7812 23C30.5853 22.8724 30.3346 22.8086 30.0293 22.8086C29.7695 22.8086 29.5462 22.8656 29.3594 22.9795C29.1725 23.0934 29.0199 23.2529 28.9014 23.458C28.7874 23.6631 28.7008 23.9046 28.6416 24.1826C28.5869 24.4561 28.5596 24.7568 28.5596 25.085V25.3584C28.5596 25.6546 28.6006 25.9281 28.6826 26.1787C28.7692 26.4294 28.89 26.6458 29.0449 26.8281C29.2044 27.0104 29.3958 27.1517 29.6191 27.252C29.847 27.3522 30.1045 27.4023 30.3916 27.4023C30.7471 27.4023 31.0775 27.334 31.3828 27.1973C31.6927 27.056 31.9593 26.8441 32.1826 26.5615L33.1396 27.6006C32.9847 27.8239 32.7728 28.0381 32.5039 28.2432C32.2396 28.4482 31.9206 28.6169 31.5469 28.749C31.1732 28.8766 30.7471 28.9404 30.2686 28.9404ZM37.7197 25.2764H36.2568V24.3945H37.3027C37.5488 24.3945 37.7448 24.3604 37.8906 24.292C38.041 24.2236 38.1481 24.1279 38.2119 24.0049C38.2803 23.8773 38.3145 23.7337 38.3145 23.5742C38.3145 23.4329 38.2848 23.2985 38.2256 23.1709C38.1709 23.0387 38.0706 22.9316 37.9248 22.8496C37.7835 22.763 37.583 22.7197 37.3232 22.7197C37.109 22.7197 36.9176 22.7516 36.749 22.8154C36.585 22.8792 36.4551 22.9727 36.3594 23.0957C36.2682 23.2142 36.2227 23.3577 36.2227 23.5264H34.2471C34.2471 23.057 34.3815 22.6559 34.6504 22.3232C34.9193 21.986 35.2793 21.7285 35.7305 21.5508C36.1816 21.3685 36.6761 21.2773 37.2139 21.2773C37.6833 21.2773 38.1071 21.3252 38.4854 21.4209C38.8636 21.512 39.1872 21.6488 39.4561 21.8311C39.7249 22.0133 39.93 22.2389 40.0713 22.5078C40.2171 22.7721 40.29 23.0798 40.29 23.4307C40.29 23.6813 40.2308 23.9183 40.1123 24.1416C39.9938 24.3649 39.8229 24.5632 39.5996 24.7363C39.3763 24.9049 39.1051 25.0371 38.7861 25.1328C38.4717 25.2285 38.1162 25.2764 37.7197 25.2764ZM36.2568 24.7842H37.7197C38.1618 24.7842 38.5492 24.8275 38.8818 24.9141C39.2191 24.9961 39.5016 25.1191 39.7295 25.2832C39.9574 25.4473 40.1283 25.6501 40.2422 25.8916C40.3607 26.1286 40.4199 26.402 40.4199 26.7119C40.4199 27.0628 40.3424 27.3773 40.1875 27.6553C40.0326 27.9287 39.8115 28.1611 39.5244 28.3525C39.2373 28.5439 38.8978 28.6898 38.5059 28.79C38.1139 28.8903 37.6833 28.9404 37.2139 28.9404C36.7126 28.9404 36.2249 28.8584 35.751 28.6943C35.277 28.5303 34.8874 28.2773 34.582 27.9355C34.2812 27.5938 34.1309 27.154 34.1309 26.6162H36.1064C36.1064 26.7712 36.152 26.917 36.2432 27.0537C36.3343 27.1904 36.471 27.2998 36.6533 27.3818C36.8356 27.4593 37.0612 27.498 37.3301 27.498C37.599 27.498 37.8154 27.4548 37.9795 27.3682C38.1436 27.2816 38.262 27.1676 38.335 27.0264C38.4124 26.8805 38.4512 26.7301 38.4512 26.5752C38.4512 26.3564 38.4079 26.1787 38.3213 26.042C38.2393 25.9053 38.1117 25.805 37.9385 25.7412C37.7699 25.6774 37.5579 25.6455 37.3027 25.6455H36.2568V24.7842ZM45.0342 28.9404C44.46 28.9404 43.945 28.8493 43.4893 28.667C43.0335 28.4801 42.6462 28.2227 42.3271 27.8945C42.0127 27.5664 41.7712 27.1859 41.6025 26.7529C41.4339 26.3154 41.3496 25.8506 41.3496 25.3584V25.085C41.3496 24.5244 41.4294 24.0117 41.5889 23.5469C41.7484 23.082 41.9762 22.6787 42.2725 22.3369C42.5732 21.9951 42.9378 21.7331 43.3662 21.5508C43.7946 21.3639 44.2777 21.2705 44.8154 21.2705C45.3395 21.2705 45.8044 21.3571 46.21 21.5303C46.6156 21.7035 46.9551 21.9495 47.2285 22.2686C47.5065 22.5876 47.7161 22.9704 47.8574 23.417C47.9987 23.859 48.0693 24.3512 48.0693 24.8936V25.7139H42.1904V24.4014H46.1348V24.251C46.1348 23.9775 46.0846 23.7337 45.9844 23.5195C45.8887 23.3008 45.7428 23.1276 45.5469 23C45.3509 22.8724 45.1003 22.8086 44.7949 22.8086C44.5352 22.8086 44.3118 22.8656 44.125 22.9795C43.9382 23.0934 43.7855 23.2529 43.667 23.458C43.5531 23.6631 43.4665 23.9046 43.4072 24.1826C43.3525 24.4561 43.3252 24.7568 43.3252 25.085V25.3584C43.3252 25.6546 43.3662 25.9281 43.4482 26.1787C43.5348 26.4294 43.6556 26.6458 43.8105 26.8281C43.9701 27.0104 44.1615 27.1517 44.3848 27.252C44.6126 27.3522 44.8701 27.4023 45.1572 27.4023C45.5127 27.4023 45.8431 27.334 46.1484 27.1973C46.4583 27.056 46.7249 26.8441 46.9482 26.5615L47.9053 27.6006C47.7503 27.8239 47.5384 28.0381 47.2695 28.2432C47.0052 28.4482 46.6862 28.6169 46.3125 28.749C45.9388 28.8766 45.5127 28.9404 45.0342 28.9404ZM51.1592 22.8291V31.6475H49.1904V21.4072H51.0156L51.1592 22.8291ZM55.8418 25.0234V25.167C55.8418 25.7048 55.778 26.2038 55.6504 26.6641C55.5273 27.1243 55.3451 27.5254 55.1035 27.8672C54.862 28.2044 54.5612 28.4688 54.2012 28.6602C53.8457 28.847 53.4355 28.9404 52.9707 28.9404C52.5195 28.9404 52.1276 28.8493 51.7949 28.667C51.4622 28.4847 51.182 28.2295 50.9541 27.9014C50.7308 27.5687 50.5508 27.1836 50.4141 26.7461C50.2773 26.3086 50.1725 25.8392 50.0996 25.3379V24.9619C50.1725 24.4242 50.2773 23.932 50.4141 23.4854C50.5508 23.0342 50.7308 22.6445 50.9541 22.3164C51.182 21.9837 51.46 21.7262 51.7881 21.5439C52.1208 21.3617 52.5104 21.2705 52.957 21.2705C53.4264 21.2705 53.8389 21.3594 54.1943 21.5371C54.5544 21.7148 54.8551 21.9701 55.0967 22.3027C55.3428 22.6354 55.5273 23.0319 55.6504 23.4922C55.778 23.9525 55.8418 24.4629 55.8418 25.0234ZM53.8662 25.167V25.0234C53.8662 24.709 53.8389 24.4196 53.7842 24.1553C53.734 23.8864 53.652 23.6517 53.5381 23.4512C53.4287 23.2507 53.2829 23.0957 53.1006 22.9863C52.9229 22.8724 52.7064 22.8154 52.4512 22.8154C52.1823 22.8154 51.9521 22.8587 51.7607 22.9453C51.5739 23.0319 51.4212 23.1572 51.3027 23.3213C51.1842 23.4854 51.0954 23.6813 51.0361 23.9092C50.9769 24.137 50.9404 24.3945 50.9268 24.6816V25.6318C50.9495 25.9691 51.0133 26.2721 51.1182 26.541C51.223 26.8053 51.3848 27.015 51.6035 27.1699C51.8223 27.3249 52.1094 27.4023 52.4648 27.4023C52.7246 27.4023 52.9434 27.3454 53.1211 27.2314C53.2988 27.113 53.4424 26.9512 53.5518 26.7461C53.6657 26.541 53.7454 26.304 53.791 26.0352C53.8411 25.7663 53.8662 25.4769 53.8662 25.167ZM60.75 25.7139H58.4326L58.4189 24.4219H60.333C60.5882 24.4219 60.7956 24.3968 60.9551 24.3467C61.1146 24.292 61.2308 24.2122 61.3037 24.1074C61.3812 23.998 61.4199 23.8659 61.4199 23.7109C61.4199 23.5742 61.3949 23.458 61.3447 23.3623C61.2992 23.262 61.2285 23.18 61.1328 23.1162C61.0371 23.0524 60.9163 23.0068 60.7705 22.9795C60.6292 22.9476 60.4629 22.9316 60.2715 22.9316H59.1641V28.8037H57.1953V21.4072H60.2715C60.7546 21.4072 61.1875 21.4505 61.5703 21.5371C61.9531 21.6191 62.279 21.7445 62.5479 21.9131C62.8213 22.0817 63.0286 22.2959 63.1699 22.5557C63.3158 22.8109 63.3887 23.1139 63.3887 23.4648C63.3887 23.6927 63.3363 23.9069 63.2314 24.1074C63.1312 24.3079 62.9808 24.4857 62.7803 24.6406C62.5798 24.7956 62.3314 24.9232 62.0352 25.0234C61.7435 25.1191 61.4062 25.1784 61.0234 25.2012L60.75 25.7139ZM60.75 28.8037H57.9473L58.624 27.2793H60.75C60.9915 27.2793 61.1898 27.2497 61.3447 27.1904C61.4997 27.1312 61.6136 27.0446 61.6865 26.9307C61.764 26.8122 61.8027 26.6709 61.8027 26.5068C61.8027 26.3473 61.7686 26.2083 61.7002 26.0898C61.6318 25.9714 61.5202 25.8802 61.3652 25.8164C61.2148 25.748 61.0098 25.7139 60.75 25.7139H58.9111L58.9248 24.4219H61.0166L61.4951 24.9414C62.0146 24.9733 62.443 25.0713 62.7803 25.2354C63.1175 25.3994 63.3659 25.609 63.5254 25.8643C63.6895 26.1149 63.7715 26.3906 63.7715 26.6914C63.7715 27.0423 63.7054 27.3499 63.5732 27.6143C63.4411 27.8786 63.2451 28.0996 62.9854 28.2773C62.7301 28.4505 62.4157 28.5827 62.042 28.6738C61.6683 28.7604 61.2376 28.8037 60.75 28.8037ZM68.1533 25.1807V25.0371C68.1533 24.4948 68.2308 23.9958 68.3857 23.54C68.5407 23.0798 68.7663 22.681 69.0625 22.3438C69.3587 22.0065 69.7233 21.7445 70.1562 21.5576C70.5892 21.3662 71.0859 21.2705 71.6465 21.2705C72.207 21.2705 72.7061 21.3662 73.1436 21.5576C73.5811 21.7445 73.9479 22.0065 74.2441 22.3438C74.5449 22.681 74.7728 23.0798 74.9277 23.54C75.0827 23.9958 75.1602 24.4948 75.1602 25.0371V25.1807C75.1602 25.7184 75.0827 26.2174 74.9277 26.6777C74.7728 27.1335 74.5449 27.5322 74.2441 27.874C73.9479 28.2113 73.5833 28.4733 73.1504 28.6602C72.7174 28.847 72.2207 28.9404 71.6602 28.9404C71.0996 28.9404 70.6006 28.847 70.1631 28.6602C69.7301 28.4733 69.3633 28.2113 69.0625 27.874C68.7663 27.5322 68.5407 27.1335 68.3857 26.6777C68.2308 26.2174 68.1533 25.7184 68.1533 25.1807ZM70.1221 25.0371V25.1807C70.1221 25.4906 70.1494 25.7799 70.2041 26.0488C70.2588 26.3177 70.3454 26.5547 70.4639 26.7598C70.5869 26.9603 70.7464 27.1175 70.9424 27.2314C71.1383 27.3454 71.3776 27.4023 71.6602 27.4023C71.9336 27.4023 72.1683 27.3454 72.3643 27.2314C72.5602 27.1175 72.7174 26.9603 72.8359 26.7598C72.9544 26.5547 73.041 26.3177 73.0957 26.0488C73.1549 25.7799 73.1846 25.4906 73.1846 25.1807V25.0371C73.1846 24.7363 73.1549 24.4538 73.0957 24.1895C73.041 23.9206 72.9521 23.6836 72.8291 23.4785C72.7106 23.2689 72.5534 23.1048 72.3574 22.9863C72.1615 22.8678 71.9245 22.8086 71.6465 22.8086C71.3685 22.8086 71.1315 22.8678 70.9355 22.9863C70.7441 23.1048 70.5869 23.2689 70.4639 23.4785C70.3454 23.6836 70.2588 23.9206 70.2041 24.1895C70.1494 24.4538 70.1221 24.7363 70.1221 25.0371ZM81.4355 24.3945V25.9258H77.6758V24.3945H81.4355ZM78.332 21.4072V28.8037H76.3633V21.4072H78.332ZM82.7686 21.4072V28.8037H80.793V21.4072H82.7686ZM89.2764 21.4072V22.9521H85.6396V21.4072H89.2764ZM90.7188 21.4072V28.8037H88.75V21.4072H90.7188ZM85.1475 21.4072H87.082L86.8838 25.1396C86.8564 25.6729 86.7995 26.1423 86.7129 26.5479C86.6263 26.9535 86.5101 27.2998 86.3643 27.5869C86.223 27.874 86.0521 28.1087 85.8516 28.291C85.6556 28.4688 85.4255 28.5986 85.1611 28.6807C84.9014 28.7627 84.6143 28.8037 84.2998 28.8037H83.6982L83.6777 27.252L83.9307 27.2246C84.0765 27.2109 84.2041 27.1699 84.3135 27.1016C84.4274 27.0286 84.5231 26.9261 84.6006 26.7939C84.6826 26.6572 84.751 26.4863 84.8057 26.2812C84.8604 26.0716 84.9036 25.8255 84.9355 25.543C84.972 25.2604 84.9971 24.9346 85.0107 24.5654L85.1475 21.4072ZM96.2354 27.1357V23.8408C96.2354 23.6038 96.1966 23.401 96.1191 23.2324C96.0417 23.0592 95.9209 22.9248 95.7568 22.8291C95.5973 22.7334 95.39 22.6855 95.1348 22.6855C94.916 22.6855 94.7269 22.7243 94.5674 22.8018C94.4079 22.8747 94.2848 22.9818 94.1982 23.123C94.1117 23.2598 94.0684 23.4215 94.0684 23.6084H92.0996C92.0996 23.2939 92.1725 22.9954 92.3184 22.7129C92.4642 22.4303 92.6761 22.182 92.9541 21.9678C93.2321 21.749 93.5625 21.5781 93.9453 21.4551C94.3327 21.332 94.7656 21.2705 95.2441 21.2705C95.8184 21.2705 96.3288 21.3662 96.7754 21.5576C97.222 21.749 97.5729 22.0361 97.8281 22.4189C98.0879 22.8018 98.2178 23.2803 98.2178 23.8545V27.0195C98.2178 27.4251 98.2428 27.7578 98.293 28.0176C98.3431 28.2728 98.416 28.4961 98.5117 28.6875V28.8037H96.5225C96.4268 28.6032 96.3538 28.3525 96.3037 28.0518C96.2581 27.7464 96.2354 27.4411 96.2354 27.1357ZM96.4951 24.2988L96.5088 25.4131H95.4082C95.1484 25.4131 94.9229 25.4427 94.7314 25.502C94.54 25.5612 94.3828 25.6455 94.2598 25.7549C94.1367 25.8597 94.0456 25.9827 93.9863 26.124C93.9316 26.2653 93.9043 26.4202 93.9043 26.5889C93.9043 26.7575 93.943 26.9102 94.0205 27.0469C94.098 27.179 94.2096 27.2839 94.3555 27.3613C94.5013 27.4342 94.6722 27.4707 94.8682 27.4707C95.1644 27.4707 95.4219 27.4115 95.6406 27.293C95.8594 27.1745 96.028 27.0286 96.1465 26.8555C96.2695 26.6823 96.3333 26.5182 96.3379 26.3633L96.8574 27.1973C96.7845 27.3841 96.6842 27.5778 96.5566 27.7783C96.4336 27.9788 96.2764 28.168 96.085 28.3457C95.8936 28.5189 95.6634 28.6624 95.3945 28.7764C95.1257 28.8857 94.8066 28.9404 94.4375 28.9404C93.9681 28.9404 93.542 28.847 93.1592 28.6602C92.7809 28.4688 92.4801 28.2067 92.2568 27.874C92.0381 27.5368 91.9287 27.154 91.9287 26.7256C91.9287 26.3382 92.0016 25.9941 92.1475 25.6934C92.2933 25.3926 92.5075 25.1396 92.79 24.9346C93.0771 24.7249 93.4349 24.5677 93.8633 24.4629C94.2917 24.3535 94.7884 24.2988 95.3535 24.2988H96.4951ZM101.697 26.0557L104.179 21.4072H106.147V28.8037H104.179V24.1484L101.697 28.8037H99.7285V21.4072H101.697V26.0557ZM103.953 18.4336H105.354C105.354 18.8255 105.257 19.1742 105.061 19.4795C104.869 19.7803 104.596 20.0173 104.24 20.1904C103.885 20.359 103.465 20.4434 102.982 20.4434C102.249 20.4434 101.668 20.2565 101.239 19.8828C100.815 19.5091 100.604 19.026 100.604 18.4336H101.998C101.998 18.6706 102.071 18.8825 102.217 19.0693C102.367 19.2562 102.622 19.3496 102.982 19.3496C103.338 19.3496 103.589 19.2562 103.734 19.0693C103.88 18.8825 103.953 18.6706 103.953 18.4336ZM112.73 24.3945V25.9258H108.971V24.3945H112.73ZM109.627 21.4072V28.8037H107.658V21.4072H109.627ZM114.063 21.4072V28.8037H112.088V21.4072H114.063Z" fill="white"/>
<path d="M170 19.0469V29H167.949V19.0469H170ZM175.865 19.0469L172.051 24.8916H169.542L169.282 23.0664H170.957L173.377 19.0469H175.865ZM173.753 29L170.964 24.5498L172.386 23.0869L176.186 29H173.753ZM178.791 28.166L180.753 21.6035H182.865L179.891 30.1143C179.828 30.3011 179.741 30.5016 179.632 30.7158C179.527 30.93 179.383 31.1328 179.201 31.3242C179.023 31.5202 178.798 31.6797 178.524 31.8027C178.255 31.9258 177.925 31.9873 177.533 31.9873C177.346 31.9873 177.194 31.9759 177.075 31.9531C176.957 31.9303 176.815 31.8984 176.651 31.8574V30.415C176.701 30.415 176.754 30.415 176.808 30.415C176.863 30.4196 176.916 30.4219 176.966 30.4219C177.225 30.4219 177.437 30.3923 177.601 30.333C177.765 30.2738 177.898 30.1826 177.998 30.0596C178.098 29.9411 178.178 29.7861 178.237 29.5947L178.791 28.166ZM177.971 21.6035L179.577 26.9629L179.857 29.0479L178.517 29.1914L175.858 21.6035H177.971ZM188.628 21.6035V23.1484H185.046V21.6035H188.628ZM185.613 21.6035V29H183.644V21.6035H185.613ZM190.063 21.6035V29H188.088V21.6035H190.063ZM193.543 26.252L196.024 21.6035H197.993V29H196.024V24.3447L193.543 29H191.574V21.6035H193.543V26.252ZM203.277 21.6035V29H201.302V21.6035H203.277ZM205.656 21.6035V23.1279H198.957V21.6035H205.656ZM208.021 23.7979H210.168C210.842 23.7979 211.417 23.9095 211.89 24.1328C212.369 24.3516 212.734 24.6569 212.984 25.0488C213.239 25.4408 213.367 25.8942 213.367 26.4092C213.367 26.7829 213.294 27.1292 213.148 27.4482C213.007 27.7627 212.8 28.0361 212.526 28.2686C212.253 28.501 211.918 28.681 211.521 28.8086C211.125 28.9362 210.674 29 210.168 29H206.791V21.6035H208.766V27.4688H210.168C210.464 27.4688 210.701 27.4209 210.879 27.3252C211.061 27.2249 211.193 27.0951 211.275 26.9355C211.362 26.776 211.405 26.6029 211.405 26.416C211.405 26.2201 211.362 26.0423 211.275 25.8828C211.193 25.7188 211.061 25.5866 210.879 25.4863C210.701 25.3861 210.464 25.3359 210.168 25.3359H208.021V23.7979Z" fill="white"/>
</svg>
