<svg width="17" height="20" viewBox="0 0 17 20" fill="none" xmlns="http://www.w3.org/2000/svg">
<path d="M5.84766 0V1.66838H7.51603V2.50255C8.09995 2.41914 8.60046 2.41914 9.18441 2.50255V1.66838H10.8528V0H5.84766Z" fill="#262626"/>
<path d="M14.0209 5.50567L14.6048 4.92176L15.2722 5.58912L16.4401 4.42125L13.9375 1.9187L12.7696 3.08657L13.437 3.75389L12.6862 4.50465C8.68216 2.08551 3.51022 3.33678 1.17453 7.34086C-1.16117 11.3449 0.0900633 16.35 4.01073 18.7692C7.9314 21.1883 13.1033 19.937 15.439 15.933C17.5245 12.5128 16.9406 8.17507 14.0209 5.50567ZM8.34846 17.4345C5.09516 17.4345 2.5092 14.8485 2.5092 11.5952C2.5092 8.34192 5.09516 5.75593 8.34846 5.75593V11.5952H14.1877C14.1878 14.8485 11.6018 17.4345 8.34846 17.4345Z" fill="#262626"/>
</svg>
